<svg xmlns="http://www.w3.org/2000/svg" xmlns:xlink="http://www.w3.org/1999/xlink" width="500" zoomAndPan="magnify" viewBox="0 0 375 374.999991" height="500" preserveAspectRatio="xMidYMid meet" version="1.0"><defs><clipPath id="6c0dba657c"><path d="M 88 343 L 108 343 L 108 347.15625 L 88 347.15625 Z M 88 343 " clip-rule="nonzero"/></clipPath></defs><path fill="#d9d9d9" d="M 249.738281 30.683594 C 249.859375 30.304688 249.867188 29.925781 249.757812 29.546875 C 249.648438 29.164062 249.445312 28.84375 249.144531 28.585938 C 248.84375 28.328125 248.496094 28.175781 248.101562 28.128906 C 247.707031 28.078125 247.335938 28.144531 246.980469 28.320312 C 234.453125 33.910156 224.132812 45.839844 213.539062 54.34375 C 201.207031 64.226562 189.429688 74.65625 177.691406 85.285156 C 165.953125 95.914062 125.5 136.109375 124.554688 136.464844 C 124.171875 136.664062 123.882812 136.957031 123.695312 137.34375 C 123.503906 137.730469 123.445312 138.136719 123.523438 138.5625 C 123.601562 138.984375 123.796875 139.347656 124.109375 139.640625 C 124.421875 139.9375 124.792969 140.113281 125.222656 140.164062 C 140.425781 142.089844 155.539062 141.539062 170.5625 138.511719 C 189.972656 133.726562 209.667969 131.703125 229.648438 132.449219 C 229.953125 132.457031 230.246094 132.402344 230.523438 132.28125 C 230.804688 132.160156 231.046875 131.988281 231.246094 131.757812 C 231.449219 131.53125 231.59375 131.269531 231.679688 130.976562 C 231.761719 130.683594 231.78125 130.386719 231.734375 130.085938 C 231.027344 119.988281 232.222656 110.121094 235.320312 100.484375 C 246.167969 97.457031 256.75 93.691406 267.070312 89.183594 C 265.453125 82.453125 243.433594 54.066406 244.066406 52.925781 C 244.15625 52.777344 244.21875 52.621094 244.261719 52.453125 C 245.5625 45.09375 247.886719 38.007812 249.738281 30.683594 Z M 174.894531 93.082031 C 186.710938 82.53125 198.292969 71.785156 210.347656 61.785156 C 215.941406 57.21875 221.613281 52.808594 227.167969 48.28125 C 232.660156 43.101562 238.476562 38.308594 244.617188 33.910156 C 243.039062 40.015625 241.308594 46.117188 240.246094 52.335938 C 240.054688 52.601562 239.960938 52.898438 239.960938 53.222656 C 239.960938 53.546875 240.054688 53.84375 240.246094 54.105469 C 235.753906 61.746094 221.769531 67.964844 214.640625 72.925781 C 203.964844 80.367188 193.132812 87.414062 182.0625 94.300781 C 168.160156 103.003906 155.476562 112.882812 142.671875 122.644531 C 152.046875 111.742188 163.984375 102.804688 174.894531 93.082031 Z M 231.933594 97.492188 L 231.933594 97.804688 C 231.03125 101.496094 230.320312 105.222656 229.804688 108.984375 C 229.53125 110.480469 226.101562 128.667969 227.953125 128.667969 C 211.292969 127.921875 195.101562 131.742188 178.597656 133.828125 C 163.746094 135.636719 148.070312 139.574219 133.140625 138.117188 C 169.222656 120.363281 202.46875 97.570312 238.15625 79.066406 C 237.40625 79.460938 236.660156 83.515625 236.382812 84.339844 L 234.613281 89.65625 C 233.746094 92.332031 232.601562 94.851562 231.816406 97.492188 Z M 236.816406 96.035156 C 238.550781 90.363281 240.519531 84.773438 242.371094 79.261719 L 259.742188 88.398438 C 252.101562 91.113281 244.378906 93.476562 236.699219 96.035156 Z M 261.160156 84.851562 C 257.96875 83.277344 242.054688 73.515625 241.070312 73.554688 C 240.570312 73.59375 240.109375 73.75 239.691406 74.027344 C 232.917969 77.570312 226.140625 80.917969 219.445312 84.65625 C 205.304688 92.53125 191.4375 100.996094 177.457031 109.222656 C 170.496094 113.367188 163.472656 117.421875 156.382812 121.386719 C 152.835938 123.355469 149.289062 125.324219 145.707031 127.253906 C 142.164062 128.785156 138.761719 130.582031 135.503906 132.644531 C 143.382812 126.742188 150.550781 120.324219 158.390625 114.535156 C 169.539062 106.386719 181.550781 99.417969 193.210938 92.019531 C 203.058594 85.796875 212.59375 79.144531 222.164062 72.335938 C 228.546875 67.925781 237.921875 64.066406 242.648438 57.492188 C 246.191406 62.335938 261.238281 84.578125 262.816406 85.445312 Z M 261.160156 84.851562 " fill-opacity="1" fill-rule="nonzero"/><path fill="#d9d9d9" d="M 286.292969 101.859375 C 291.21875 99.734375 296.351562 98.421875 301.695312 97.921875 C 301.816406 97.910156 301.929688 97.945312 302.027344 98.019531 C 302.125 98.09375 302.1875 98.195312 302.207031 98.316406 C 302.230469 98.457031 302.199219 98.578125 302.113281 98.6875 C 302.023438 98.800781 301.914062 98.859375 301.773438 98.867188 C 296.480469 99.226562 291.371094 100.394531 286.449219 102.371094 C 286.449219 102.371094 286.449219 102.371094 286.214844 102.371094 C 286.144531 102.359375 286.085938 102.328125 286.042969 102.269531 C 286 102.210938 285.984375 102.148438 285.996094 102.078125 C 286.007812 102.007812 286.042969 101.949219 286.101562 101.90625 C 286.15625 101.867188 286.222656 101.847656 286.292969 101.859375 Z M 286.292969 101.859375 " fill-opacity="1" fill-rule="nonzero"/><path fill="#d9d9d9" d="M 317.648438 98.394531 C 322.949219 99.355469 328.042969 100.96875 332.929688 103.238281 C 333.183594 103.355469 333.359375 103.542969 333.460938 103.804688 C 333.558594 104.0625 333.554688 104.320312 333.441406 104.578125 C 333.386719 104.699219 333.308594 104.804688 333.210938 104.894531 C 333.113281 104.984375 333 105.054688 332.875 105.097656 C 332.746094 105.140625 332.617188 105.160156 332.484375 105.152344 C 332.351562 105.144531 332.222656 105.109375 332.101562 105.050781 C 327.390625 102.765625 322.480469 101.046875 317.371094 99.890625 C 317.160156 99.851562 317 99.742188 316.882812 99.566406 C 316.765625 99.386719 316.730469 99.195312 316.78125 98.988281 C 316.808594 98.78125 316.910156 98.617188 317.082031 98.5 C 317.253906 98.382812 317.445312 98.347656 317.648438 98.394531 Z M 317.648438 98.394531 " fill-opacity="1" fill-rule="nonzero"/><path fill="#d9d9d9" d="M 346.71875 111.542969 C 351.050781 114.796875 354.992188 118.46875 358.535156 122.566406 C 358.660156 122.691406 358.757812 122.835938 358.824219 123 C 358.890625 123.164062 358.925781 123.335938 358.925781 123.511719 C 358.925781 123.691406 358.890625 123.859375 358.824219 124.023438 C 358.757812 124.1875 358.660156 124.332031 358.535156 124.457031 C 358.410156 124.582031 358.265625 124.679688 358.101562 124.746094 C 357.9375 124.8125 357.765625 124.847656 357.589844 124.847656 C 357.410156 124.847656 357.242188 124.8125 357.078125 124.746094 C 356.914062 124.679688 356.769531 124.582031 356.644531 124.457031 C 353.34375 120.414062 349.640625 116.777344 345.535156 113.550781 C 345.308594 113.34375 345.183594 113.085938 345.160156 112.777344 C 345.132812 112.472656 345.21875 112.195312 345.410156 111.953125 C 345.597656 111.710938 345.847656 111.566406 346.152344 111.519531 C 346.457031 111.46875 346.738281 111.53125 346.992188 111.703125 Z M 346.71875 111.542969 " fill-opacity="1" fill-rule="nonzero"/><path fill="#d9d9d9" d="M 367.515625 135.914062 C 370.027344 140.742188 371.90625 145.808594 373.148438 151.109375 C 373.234375 151.324219 373.269531 151.542969 373.261719 151.773438 C 373.25 152.003906 373.191406 152.21875 373.085938 152.421875 C 372.976562 152.625 372.835938 152.796875 372.652344 152.941406 C 372.472656 153.082031 372.269531 153.175781 372.046875 153.230469 C 371.820312 153.28125 371.597656 153.285156 371.371094 153.238281 C 371.148438 153.191406 370.941406 153.101562 370.753906 152.964844 C 370.570312 152.832031 370.421875 152.664062 370.308594 152.460938 C 370.199219 152.261719 370.132812 152.046875 370.117188 151.816406 C 368.980469 146.753906 367.234375 141.914062 364.875 137.292969 C 364.785156 137.117188 364.734375 136.929688 364.714844 136.734375 C 364.699219 136.539062 364.71875 136.347656 364.777344 136.15625 C 364.835938 135.96875 364.929688 135.800781 365.054688 135.648438 C 365.183594 135.496094 365.332031 135.375 365.507812 135.285156 C 365.683594 135.199219 365.867188 135.148438 366.0625 135.132812 C 366.257812 135.121094 366.449219 135.140625 366.636719 135.199219 C 366.824219 135.257812 366.992188 135.351562 367.144531 135.472656 C 367.296875 135.597656 367.421875 135.742188 367.515625 135.914062 Z M 367.515625 135.914062 " fill-opacity="1" fill-rule="nonzero"/><path fill="#d9d9d9" d="M 374.960938 167.132812 C 374.960938 172.535156 374.449219 177.890625 373.425781 183.195312 C 373.382812 183.414062 373.300781 183.621094 373.175781 183.808594 C 373.050781 184 372.898438 184.15625 372.710938 184.285156 C 372.523438 184.410156 372.320312 184.5 372.101562 184.546875 C 371.878906 184.589844 371.65625 184.59375 371.433594 184.550781 C 371.214844 184.511719 371.007812 184.425781 370.820312 184.304688 C 370.628906 184.179688 370.472656 184.027344 370.34375 183.839844 C 370.214844 183.652344 370.128906 183.449219 370.082031 183.226562 C 370.035156 183.007812 370.035156 182.785156 370.074219 182.5625 C 371.164062 177.476562 371.753906 172.332031 371.847656 167.132812 C 371.84375 166.914062 371.878906 166.703125 371.960938 166.503906 C 372.039062 166.300781 372.15625 166.121094 372.308594 165.964844 C 372.460938 165.808594 372.636719 165.6875 372.835938 165.605469 C 373.035156 165.519531 373.246094 165.476562 373.464844 165.476562 C 373.667969 165.503906 373.859375 165.5625 374.042969 165.65625 C 374.226562 165.75 374.386719 165.871094 374.523438 166.023438 C 374.660156 166.175781 374.765625 166.347656 374.84375 166.539062 C 374.917969 166.730469 374.957031 166.925781 374.960938 167.132812 Z M 374.960938 167.132812 " fill-opacity="1" fill-rule="nonzero"/><path fill="#d9d9d9" d="M 368.933594 198.625 C 367.007812 203.65625 364.671875 208.484375 361.921875 213.113281 C 361.808594 213.3125 361.660156 213.480469 361.476562 213.617188 C 361.292969 213.757812 361.09375 213.855469 360.871094 213.917969 C 360.648438 213.976562 360.425781 213.988281 360.199219 213.960938 C 359.96875 213.929688 359.757812 213.859375 359.558594 213.742188 C 359.351562 213.636719 359.175781 213.492188 359.03125 213.3125 C 358.882812 213.128906 358.78125 212.925781 358.722656 212.703125 C 358.660156 212.476562 358.648438 212.25 358.6875 212.019531 C 358.722656 211.789062 358.800781 211.578125 358.929688 211.382812 C 361.507812 206.855469 363.753906 202.171875 365.664062 197.328125 C 365.769531 197.136719 365.902344 196.972656 366.066406 196.832031 C 366.230469 196.691406 366.414062 196.585938 366.617188 196.511719 C 366.820312 196.4375 367.03125 196.402344 367.246094 196.40625 C 367.464844 196.410156 367.671875 196.453125 367.875 196.53125 C 368.074219 196.613281 368.253906 196.726562 368.414062 196.871094 C 368.574219 197.015625 368.703125 197.1875 368.800781 197.378906 C 368.898438 197.570312 368.957031 197.773438 368.980469 197.988281 C 369.003906 198.203125 368.988281 198.417969 368.933594 198.625 Z M 368.933594 198.625 " fill-opacity="1" fill-rule="nonzero"/><path fill="#d9d9d9" d="M 352.863281 226.539062 C 349.507812 230.695312 345.910156 234.632812 342.070312 238.347656 C 341.914062 238.5 341.738281 238.617188 341.535156 238.699219 C 341.335938 238.785156 341.125 238.824219 340.90625 238.824219 C 340.691406 238.824219 340.480469 238.785156 340.28125 238.699219 C 340.078125 238.617188 339.898438 238.5 339.746094 238.347656 C 339.59375 238.195312 339.476562 238.023438 339.394531 237.824219 C 339.3125 237.625 339.273438 237.421875 339.273438 237.207031 C 339.273438 236.992188 339.3125 236.785156 339.394531 236.589844 C 339.476562 236.390625 339.59375 236.214844 339.746094 236.066406 C 343.476562 232.359375 346.941406 228.425781 350.144531 224.253906 C 350.28125 224.078125 350.449219 223.933594 350.644531 223.824219 C 350.839844 223.710938 351.050781 223.644531 351.273438 223.617188 C 351.496094 223.589844 351.71875 223.605469 351.933594 223.664062 C 352.152344 223.726562 352.347656 223.824219 352.523438 223.960938 C 352.703125 224.101562 352.847656 224.265625 352.957031 224.460938 C 353.070312 224.65625 353.136719 224.867188 353.164062 225.089844 C 353.195312 225.3125 353.179688 225.53125 353.117188 225.75 C 353.058594 225.964844 352.960938 226.164062 352.824219 226.339844 Z M 352.863281 226.539062 " fill-opacity="1" fill-rule="nonzero"/><path fill="#d9d9d9" d="M 329.738281 248.78125 C 327.535156 250.277344 325.367188 251.8125 323.121094 253.269531 L 316.269531 257.402344 C 316.121094 257.488281 315.960938 257.542969 315.789062 257.5625 C 315.617188 257.585938 315.449219 257.574219 315.285156 257.53125 C 315.117188 257.488281 314.96875 257.414062 314.832031 257.308594 C 314.695312 257.203125 314.582031 257.078125 314.496094 256.929688 C 314.40625 256.789062 314.347656 256.636719 314.320312 256.472656 C 314.292969 256.308594 314.296875 256.144531 314.335938 255.980469 C 314.371094 255.820312 314.4375 255.671875 314.535156 255.535156 C 314.628906 255.398438 314.75 255.285156 314.890625 255.199219 L 321.546875 251.023438 C 323.714844 249.527344 325.800781 247.992188 327.929688 246.457031 C 328.082031 246.328125 328.257812 246.234375 328.453125 246.179688 C 328.648438 246.125 328.84375 246.109375 329.042969 246.132812 C 329.246094 246.160156 329.433594 246.226562 329.605469 246.328125 C 329.777344 246.433594 329.925781 246.566406 330.042969 246.730469 C 330.160156 246.894531 330.242188 247.074219 330.28125 247.273438 C 330.324219 247.472656 330.328125 247.667969 330.285156 247.867188 C 330.246094 248.066406 330.167969 248.246094 330.054688 248.414062 C 329.9375 248.578125 329.792969 248.714844 329.621094 248.820312 Z M 329.738281 248.78125 " fill-opacity="1" fill-rule="nonzero"/><path fill="#d9d9d9" d="M 301.929688 264.488281 L 287 270.15625 C 286.761719 270.238281 286.527344 270.222656 286.300781 270.117188 C 286.070312 270.011719 285.910156 269.839844 285.820312 269.605469 C 285.738281 269.371094 285.746094 269.140625 285.84375 268.914062 C 285.941406 268.6875 286.105469 268.523438 286.332031 268.425781 L 300.945312 262.441406 C 301.082031 262.390625 301.226562 262.363281 301.375 262.367188 C 301.523438 262.371094 301.664062 262.402344 301.800781 262.460938 C 301.9375 262.519531 302.058594 262.601562 302.160156 262.707031 C 302.265625 262.8125 302.347656 262.933594 302.402344 263.070312 C 302.460938 263.207031 302.488281 263.347656 302.488281 263.496094 C 302.484375 263.640625 302.453125 263.78125 302.394531 263.914062 C 302.335938 264.050781 302.25 264.167969 302.144531 264.265625 C 302.035156 264.367188 301.910156 264.441406 301.773438 264.488281 Z M 301.929688 264.488281 " fill-opacity="1" fill-rule="nonzero"/><path fill="#d9d9d9" d="M 271.71875 274.605469 L 256.199219 278.070312 C 256.011719 278.109375 255.839844 278.078125 255.683594 277.976562 C 255.523438 277.878906 255.417969 277.738281 255.371094 277.558594 C 255.332031 277.375 255.363281 277.203125 255.460938 277.042969 C 255.5625 276.882812 255.699219 276.78125 255.882812 276.730469 L 271.285156 273.148438 C 271.46875 273.144531 271.632812 273.203125 271.78125 273.316406 C 271.925781 273.429688 272.019531 273.574219 272.0625 273.753906 C 272.105469 273.933594 272.085938 274.109375 272.007812 274.273438 C 271.925781 274.441406 271.804688 274.566406 271.636719 274.644531 Z M 271.71875 274.605469 " fill-opacity="1" fill-rule="nonzero"/><path fill="#d9d9d9" d="M 240.519531 280.667969 L 224.761719 282.597656 C 224.597656 282.609375 224.449219 282.5625 224.320312 282.457031 C 224.191406 282.347656 224.113281 282.210938 224.09375 282.046875 C 224.070312 281.878906 224.109375 281.726562 224.207031 281.589844 C 224.304688 281.453125 224.4375 281.367188 224.605469 281.335938 L 240.363281 279.410156 C 240.535156 279.386719 240.695312 279.425781 240.832031 279.535156 C 240.972656 279.644531 241.050781 279.785156 241.070312 279.960938 C 241.085938 280.132812 241.039062 280.285156 240.933594 280.421875 C 240.828125 280.554688 240.6875 280.636719 240.519531 280.667969 Z M 240.519531 280.667969 " fill-opacity="1" fill-rule="nonzero"/><path fill="#d9d9d9" d="M 208.890625 283.976562 C 203.636719 284.304688 198.386719 284.304688 193.132812 283.976562 C 192.933594 283.953125 192.769531 283.867188 192.640625 283.714844 C 192.511719 283.5625 192.453125 283.386719 192.464844 283.1875 C 192.460938 282.988281 192.535156 282.820312 192.6875 282.683594 C 192.835938 282.550781 193.011719 282.496094 193.210938 282.519531 C 198.464844 282.832031 203.714844 282.832031 208.96875 282.519531 C 209.15625 282.496094 209.324219 282.546875 209.464844 282.671875 C 209.609375 282.800781 209.679688 282.957031 209.675781 283.148438 C 209.707031 283.261719 209.707031 283.375 209.679688 283.488281 C 209.648438 283.597656 209.59375 283.699219 209.515625 283.78125 C 209.433594 283.867188 209.339844 283.925781 209.226562 283.960938 C 209.117188 283.996094 209.003906 284 208.890625 283.976562 Z M 208.890625 283.976562 " fill-opacity="1" fill-rule="nonzero"/><path fill="#d9d9d9" d="M 177.140625 281.535156 C 171.84375 280.257812 166.910156 278.144531 162.328125 275.195312 C 162.117188 275.035156 161.984375 274.820312 161.929688 274.558594 C 161.878906 274.296875 161.917969 274.050781 162.054688 273.816406 C 162.125 273.707031 162.214844 273.613281 162.328125 273.542969 C 162.4375 273.46875 162.554688 273.417969 162.683594 273.390625 C 162.816406 273.367188 162.945312 273.367188 163.074219 273.390625 C 163.203125 273.417969 163.324219 273.46875 163.433594 273.542969 C 167.785156 276.46875 172.5 278.59375 177.574219 279.921875 C 177.792969 279.988281 177.957031 280.117188 178.070312 280.316406 C 178.183594 280.511719 178.214844 280.722656 178.164062 280.945312 C 178.097656 281.160156 177.964844 281.328125 177.769531 281.441406 C 177.570312 281.554688 177.363281 281.585938 177.140625 281.535156 Z M 177.140625 281.535156 " fill-opacity="1" fill-rule="nonzero"/><path fill="#d9d9d9" d="M 151.613281 262.992188 C 150.394531 260.480469 149.59375 257.84375 149.210938 255.078125 C 148.828125 252.316406 148.878906 249.558594 149.371094 246.8125 C 149.394531 246.644531 149.449219 246.488281 149.539062 246.347656 C 149.625 246.203125 149.738281 246.082031 149.875 245.984375 C 150.015625 245.886719 150.167969 245.824219 150.332031 245.789062 C 150.496094 245.753906 150.660156 245.753906 150.828125 245.789062 C 150.992188 245.816406 151.144531 245.875 151.285156 245.964844 C 151.425781 246.054688 151.542969 246.167969 151.640625 246.304688 C 151.738281 246.441406 151.804688 246.589844 151.839844 246.753906 C 151.875 246.917969 151.878906 247.082031 151.851562 247.246094 C 151.398438 249.738281 151.316406 252.246094 151.613281 254.765625 C 151.921875 257.285156 152.605469 259.699219 153.664062 262.007812 C 153.773438 262.289062 153.773438 262.574219 153.660156 262.855469 C 153.542969 263.136719 153.347656 263.339844 153.074219 263.464844 C 152.945312 263.527344 152.808594 263.5625 152.664062 263.574219 C 152.523438 263.582031 152.382812 263.566406 152.25 263.523438 C 152.113281 263.476562 151.988281 263.410156 151.878906 263.320312 C 151.769531 263.226562 151.683594 263.117188 151.613281 262.992188 Z M 151.613281 262.992188 " fill-opacity="1" fill-rule="nonzero"/><path fill="#d9d9d9" d="M 156.027344 231.890625 C 159.457031 227.453125 163.671875 223.964844 168.671875 221.417969 C 168.871094 221.292969 169.089844 221.214844 169.328125 221.191406 C 169.5625 221.164062 169.792969 221.191406 170.015625 221.273438 C 170.238281 221.355469 170.433594 221.480469 170.597656 221.652344 C 170.765625 221.820312 170.882812 222.019531 170.957031 222.246094 C 171.050781 222.429688 171.105469 222.621094 171.117188 222.824219 C 171.132812 223.03125 171.105469 223.230469 171.039062 223.421875 C 170.972656 223.617188 170.871094 223.789062 170.734375 223.9375 C 170.59375 224.089844 170.433594 224.207031 170.246094 224.292969 C 165.578125 226.515625 161.640625 229.652344 158.429688 233.703125 C 158.316406 233.851562 158.179688 233.972656 158.015625 234.066406 C 157.855469 234.160156 157.679688 234.214844 157.496094 234.238281 C 157.308594 234.261719 157.125 234.246094 156.945312 234.195312 C 156.765625 234.140625 156.605469 234.058594 156.460938 233.9375 C 156.289062 233.835938 156.144531 233.707031 156.027344 233.546875 C 155.910156 233.382812 155.832031 233.207031 155.792969 233.011719 C 155.75 232.816406 155.75 232.621094 155.792969 232.425781 C 155.832031 232.230469 155.910156 232.054688 156.027344 231.890625 Z M 156.027344 231.890625 " fill-opacity="1" fill-rule="nonzero"/><path fill="#d9d9d9" d="M 184.859375 218.035156 C 190.417969 218.316406 195.671875 219.734375 200.617188 222.285156 C 200.828125 222.394531 201.007812 222.539062 201.160156 222.71875 C 201.3125 222.898438 201.425781 223.101562 201.5 223.328125 C 201.574219 223.550781 201.601562 223.78125 201.585938 224.015625 C 201.570312 224.25 201.507812 224.476562 201.40625 224.6875 C 201.300781 224.90625 201.15625 225.09375 200.972656 225.253906 C 200.789062 225.414062 200.582031 225.53125 200.351562 225.605469 C 200.121094 225.679688 199.886719 225.703125 199.644531 225.683594 C 199.402344 225.660156 199.175781 225.589844 198.960938 225.476562 C 194.425781 223.132812 189.605469 221.820312 184.507812 221.539062 C 184.285156 221.523438 184.074219 221.464844 183.875 221.367188 C 183.675781 221.269531 183.503906 221.140625 183.355469 220.972656 C 183.210938 220.808594 183.097656 220.621094 183.023438 220.410156 C 182.953125 220.203125 182.917969 219.988281 182.929688 219.765625 C 182.914062 219.515625 182.953125 219.269531 183.050781 219.039062 C 183.148438 218.804688 183.289062 218.601562 183.476562 218.433594 C 183.664062 218.265625 183.878906 218.144531 184.121094 218.074219 C 184.367188 218.003906 184.613281 217.992188 184.859375 218.035156 Z M 184.859375 218.035156 " fill-opacity="1" fill-rule="nonzero"/><path fill="#d9d9d9" d="M 213.8125 232.285156 C 217.570312 236.410156 220.472656 241.070312 222.519531 246.261719 C 222.613281 246.496094 222.664062 246.738281 222.660156 246.992188 C 222.660156 247.246094 222.609375 247.492188 222.507812 247.722656 C 222.40625 247.957031 222.265625 248.164062 222.082031 248.339844 C 221.902344 248.515625 221.691406 248.648438 221.453125 248.742188 C 221.21875 248.839844 220.96875 248.886719 220.714844 248.886719 C 220.457031 248.882812 220.210938 248.832031 219.972656 248.734375 C 219.738281 248.632812 219.527344 248.492188 219.347656 248.308594 C 219.167969 248.125 219.03125 247.917969 218.933594 247.679688 C 217.089844 242.910156 214.464844 238.617188 211.054688 234.804688 C 210.878906 234.632812 210.746094 234.4375 210.648438 234.210938 C 210.554688 233.984375 210.507812 233.75 210.507812 233.503906 C 210.507812 233.261719 210.554688 233.027344 210.648438 232.800781 C 210.746094 232.574219 210.878906 232.378906 211.054688 232.207031 C 211.238281 232.015625 211.449219 231.871094 211.691406 231.769531 C 211.9375 231.667969 212.1875 231.621094 212.453125 231.628906 C 212.714844 231.636719 212.964844 231.699219 213.203125 231.8125 C 213.441406 231.925781 213.644531 232.085938 213.8125 232.285156 Z M 213.8125 232.285156 " fill-opacity="1" fill-rule="nonzero"/><path fill="#d9d9d9" d="M 225.710938 262.402344 C 225.828125 267.914062 225.171875 273.335938 223.738281 278.660156 C 223.699219 278.949219 223.601562 279.21875 223.445312 279.464844 C 223.289062 279.710938 223.089844 279.914062 222.847656 280.078125 C 222.605469 280.238281 222.339844 280.34375 222.050781 280.394531 C 221.761719 280.441406 221.476562 280.429688 221.195312 280.355469 C 220.914062 280.28125 220.660156 280.152344 220.429688 279.972656 C 220.203125 279.789062 220.023438 279.566406 219.890625 279.308594 C 219.753906 279.050781 219.679688 278.773438 219.664062 278.480469 C 219.652344 278.191406 219.695312 277.910156 219.800781 277.636719 C 221.152344 272.6875 221.796875 267.648438 221.730469 262.519531 C 221.71875 262.253906 221.761719 262 221.855469 261.75 C 221.945312 261.503906 222.082031 261.285156 222.265625 261.089844 C 222.445312 260.898438 222.660156 260.75 222.902344 260.640625 C 223.144531 260.535156 223.394531 260.476562 223.660156 260.472656 C 223.921875 260.472656 224.175781 260.519531 224.417969 260.617188 C 224.660156 260.710938 224.878906 260.851562 225.070312 261.03125 C 225.257812 261.210938 225.410156 261.417969 225.519531 261.65625 C 225.632812 261.890625 225.695312 262.140625 225.710938 262.402344 Z M 225.710938 262.402344 " fill-opacity="1" fill-rule="nonzero"/><path fill="#d9d9d9" d="M 217.671875 293.816406 C 216.371094 296.214844 214.914062 298.507812 213.300781 300.707031 C 211.726562 302.949219 209.953125 304.996094 208.179688 307.082031 C 208.003906 307.296875 207.792969 307.464844 207.550781 307.589844 C 207.304688 307.71875 207.046875 307.792969 206.773438 307.8125 C 206.5 307.835938 206.230469 307.804688 205.96875 307.71875 C 205.707031 307.632812 205.472656 307.5 205.265625 307.320312 C 205.054688 307.144531 204.886719 306.933594 204.761719 306.691406 C 204.632812 306.449219 204.554688 306.191406 204.53125 305.917969 C 204.503906 305.648438 204.53125 305.378906 204.609375 305.117188 C 204.691406 304.855469 204.816406 304.621094 204.988281 304.40625 C 206.605469 302.4375 208.335938 300.46875 209.796875 298.421875 C 211.226562 296.316406 212.539062 294.136719 213.734375 291.886719 C 213.871094 291.644531 214.046875 291.4375 214.265625 291.265625 C 214.484375 291.09375 214.726562 290.96875 214.996094 290.894531 C 215.261719 290.816406 215.535156 290.796875 215.8125 290.828125 C 216.085938 290.859375 216.347656 290.945312 216.589844 291.082031 C 216.832031 291.214844 217.039062 291.394531 217.214844 291.613281 C 217.386719 291.832031 217.507812 292.074219 217.585938 292.339844 C 217.660156 292.609375 217.683594 292.878906 217.648438 293.15625 C 217.617188 293.433594 217.535156 293.691406 217.398438 293.933594 Z M 217.671875 293.816406 " fill-opacity="1" fill-rule="nonzero"/><path fill="#d9d9d9" d="M 196.285156 318.066406 C 191.984375 321.332031 187.480469 324.285156 182.773438 326.925781 C 182.539062 327.058594 182.289062 327.140625 182.019531 327.171875 C 181.75 327.203125 181.488281 327.183594 181.230469 327.109375 C 180.96875 327.035156 180.734375 326.914062 180.523438 326.746094 C 180.3125 326.578125 180.144531 326.375 180.015625 326.136719 C 179.886719 325.90625 179.804688 325.65625 179.773438 325.390625 C 179.742188 325.125 179.761719 324.867188 179.828125 324.609375 C 179.898438 324.351562 180.015625 324.117188 180.175781 323.902344 C 180.339844 323.691406 180.535156 323.519531 180.765625 323.382812 C 185.308594 320.839844 189.640625 317.980469 193.761719 314.800781 C 193.980469 314.632812 194.21875 314.515625 194.484375 314.441406 C 194.75 314.371094 195.015625 314.351562 195.289062 314.386719 C 195.558594 314.421875 195.8125 314.507812 196.050781 314.644531 C 196.289062 314.78125 196.492188 314.957031 196.65625 315.175781 C 196.824219 315.390625 196.945312 315.632812 197.015625 315.894531 C 197.085938 316.160156 197.105469 316.425781 197.070312 316.699219 C 197.035156 316.96875 196.949219 317.222656 196.8125 317.460938 C 196.675781 317.699219 196.5 317.902344 196.285156 318.066406 Z M 196.285156 318.066406 " fill-opacity="1" fill-rule="nonzero"/><path fill="#d9d9d9" d="M 168.277344 333.933594 C 163.394531 336.058594 158.234375 337.59375 153.230469 339.445312 C 152.980469 339.527344 152.726562 339.5625 152.464844 339.550781 C 152.203125 339.535156 151.953125 339.472656 151.714844 339.363281 C 151.476562 339.253906 151.265625 339.105469 151.085938 338.914062 C 150.90625 338.722656 150.765625 338.507812 150.667969 338.261719 C 150.582031 338.019531 150.542969 337.765625 150.554688 337.503906 C 150.566406 337.242188 150.628906 336.996094 150.738281 336.757812 C 150.847656 336.523438 151 336.316406 151.195312 336.140625 C 151.386719 335.964844 151.605469 335.832031 151.851562 335.742188 L 152.046875 335.742188 C 156.933594 333.933594 161.933594 332.4375 166.742188 330.3125 C 166.988281 330.203125 167.242188 330.148438 167.511719 330.144531 C 167.777344 330.140625 168.035156 330.1875 168.285156 330.285156 C 168.535156 330.382812 168.753906 330.523438 168.949219 330.710938 C 169.140625 330.894531 169.289062 331.109375 169.398438 331.355469 C 169.503906 331.601562 169.558594 331.855469 169.566406 332.125 C 169.570312 332.390625 169.523438 332.648438 169.425781 332.898438 C 169.328125 333.148438 169.1875 333.367188 169 333.5625 C 168.816406 333.753906 168.601562 333.902344 168.355469 334.011719 Z M 168.277344 333.933594 " fill-opacity="1" fill-rule="nonzero"/><path fill="#d9d9d9" d="M 137.671875 343.378906 L 121.914062 345.898438 C 121.695312 345.933594 121.476562 345.925781 121.261719 345.875 C 121.046875 345.824219 120.847656 345.734375 120.667969 345.605469 C 120.488281 345.476562 120.335938 345.320312 120.21875 345.132812 C 120.101562 344.945312 120.023438 344.742188 119.984375 344.523438 C 119.953125 344.304688 119.96875 344.089844 120.019531 343.875 C 120.074219 343.660156 120.164062 343.464844 120.292969 343.285156 C 120.417969 343.105469 120.578125 342.957031 120.761719 342.835938 C 120.945312 342.71875 121.148438 342.636719 121.363281 342.59375 L 136.804688 339.835938 C 137.042969 339.804688 137.28125 339.8125 137.515625 339.871094 C 137.75 339.925781 137.96875 340.023438 138.164062 340.164062 C 138.363281 340.300781 138.527344 340.472656 138.660156 340.675781 C 138.792969 340.878906 138.882812 341.097656 138.929688 341.332031 C 138.972656 341.574219 138.964844 341.8125 138.910156 342.050781 C 138.855469 342.285156 138.757812 342.503906 138.621094 342.703125 C 138.480469 342.902344 138.304688 343.066406 138.101562 343.199219 C 137.894531 343.328125 137.675781 343.417969 137.433594 343.460938 Z M 137.671875 343.378906 " fill-opacity="1" fill-rule="nonzero"/><g clip-path="url(#6c0dba657c)"><path fill="#d9d9d9" d="M 105.882812 347.042969 L 89.890625 346.804688 C 89.703125 346.796875 89.527344 346.75 89.355469 346.671875 C 89.1875 346.59375 89.039062 346.488281 88.910156 346.351562 C 88.78125 346.21875 88.683594 346.0625 88.613281 345.890625 C 88.546875 345.714844 88.511719 345.535156 88.511719 345.347656 C 88.515625 345.164062 88.554688 344.988281 88.628906 344.820312 C 88.703125 344.648438 88.808594 344.5 88.941406 344.371094 C 89.074219 344.242188 89.222656 344.144531 89.394531 344.074219 C 89.566406 344.007812 89.746094 343.972656 89.929688 343.972656 L 105.921875 343.972656 C 106.304688 344.03125 106.621094 344.210938 106.871094 344.503906 C 107.125 344.796875 107.25 345.140625 107.25 345.527344 C 107.25 345.914062 107.125 346.253906 106.871094 346.546875 C 106.621094 346.84375 106.304688 347.019531 105.921875 347.082031 Z M 105.882812 347.042969 " fill-opacity="1" fill-rule="nonzero"/></g><path fill="#d9d9d9" d="M 74.015625 345.152344 L 58.257812 342.199219 C 58.109375 342.171875 57.972656 342.117188 57.84375 342.03125 C 57.71875 341.949219 57.613281 341.84375 57.527344 341.71875 C 57.441406 341.59375 57.386719 341.457031 57.355469 341.308594 C 57.324219 341.160156 57.324219 341.011719 57.351562 340.863281 C 57.382812 340.714844 57.4375 340.582031 57.515625 340.457031 C 57.597656 340.335938 57.699219 340.230469 57.820312 340.148438 C 57.941406 340.0625 58.074219 340.003906 58.21875 339.96875 C 58.363281 339.9375 58.507812 339.933594 58.652344 339.957031 L 74.210938 342.59375 C 74.382812 342.617188 74.539062 342.671875 74.6875 342.757812 C 74.835938 342.847656 74.960938 342.960938 75.058594 343.097656 C 75.160156 343.234375 75.230469 343.386719 75.269531 343.554688 C 75.308594 343.722656 75.3125 343.890625 75.285156 344.058594 C 75.253906 344.226562 75.195312 344.382812 75.101562 344.527344 C 75.007812 344.671875 74.890625 344.789062 74.746094 344.886719 C 74.605469 344.980469 74.449219 345.046875 74.28125 345.078125 C 74.113281 345.109375 73.945312 345.109375 73.777344 345.074219 Z M 74.015625 345.152344 " fill-opacity="1" fill-rule="nonzero"/><path fill="#d9d9d9" d="M 42.976562 337.871094 L 28.046875 332.160156 C 27.84375 332.078125 27.703125 331.9375 27.617188 331.738281 C 27.535156 331.539062 27.53125 331.339844 27.613281 331.136719 C 27.695312 330.945312 27.828125 330.804688 28.015625 330.714844 C 28.203125 330.625 28.398438 330.609375 28.597656 330.664062 L 43.488281 335.941406 C 43.742188 336.03125 43.929688 336.203125 44.042969 336.449219 C 44.160156 336.695312 44.171875 336.945312 44.078125 337.199219 C 44.039062 337.328125 43.976562 337.4375 43.886719 337.539062 C 43.800781 337.636719 43.699219 337.714844 43.578125 337.773438 C 43.457031 337.828125 43.332031 337.859375 43.199219 337.859375 C 43.066406 337.863281 42.941406 337.839844 42.816406 337.789062 Z M 42.976562 337.871094 " fill-opacity="1" fill-rule="nonzero"/><path fill="#d9d9d9" d="M 13.785156 325.074219 L 0.277344 316.730469 C 0.179688 316.710938 0.113281 316.65625 0.0742188 316.566406 C 0.0390625 316.476562 0.0429688 316.390625 0.0976562 316.3125 C 0.148438 316.230469 0.222656 316.1875 0.320312 316.183594 C 0.417969 316.179688 0.496094 316.21875 0.550781 316.296875 L 14.300781 324.167969 C 14.421875 324.253906 14.5 324.363281 14.535156 324.507812 C 14.574219 324.648438 14.5625 324.785156 14.496094 324.917969 C 14.398438 325.011719 14.277344 325.058594 14.140625 325.058594 C 14.003906 325.058594 13.886719 325.011719 13.785156 324.917969 Z M 13.785156 325.074219 " fill-opacity="1" fill-rule="nonzero"/></svg>